<svg width="50" height="50" viewBox="0 0 50 50" fill="none" xmlns="http://www.w3.org/2000/svg">
<path d="M47.2217 22.2217H45.1172C40.168 22.2217 37.6885 16.2383 41.1885 12.7383L42.6758 11.249C43.1662 10.7225 43.4331 10.0261 43.4202 9.30665C43.4074 8.5872 43.1158 7.90081 42.607 7.39206C42.0981 6.88332 41.4116 6.59193 40.6922 6.57927C39.9727 6.56662 39.2764 6.83368 38.75 7.32422L37.2617 8.81055C33.7617 12.3096 27.7783 9.83105 27.7783 4.88184V2.77734C27.7783 2.04049 27.4856 1.33381 26.9646 0.812775C26.4435 0.291739 25.7368 -0.000976562 25 -0.000976562C24.2631 -0.000976562 23.5565 0.291739 23.0354 0.812775C22.5144 1.33381 22.2217 2.04049 22.2217 2.77734V4.88281C22.2217 9.83203 16.2383 12.3105 12.7383 8.81152L11.25 7.32422C10.7235 6.83368 10.0273 6.56662 9.3078 6.57927C8.58835 6.59193 7.90189 6.88332 7.39301 7.39206C6.88414 7.90081 6.59258 8.5872 6.57975 9.30665C6.56691 10.0261 6.83381 10.7225 7.32421 11.249L8.81347 12.7383C12.3135 16.2383 9.83398 22.2217 4.88476 22.2217H2.77831C2.40914 22.2148 2.04229 22.2815 1.69921 22.418C1.35612 22.5545 1.04369 22.758 0.78016 23.0166C0.516634 23.2752 0.307304 23.5838 0.164405 23.9243C0.0215067 24.2647 -0.0520935 24.6303 -0.0520935 24.9995C-0.0520935 25.3687 0.0215067 25.7343 0.164405 26.0748C0.307304 26.4152 0.516634 26.7238 0.78016 26.9824C1.04369 27.241 1.35612 27.4446 1.69921 27.581C2.04229 27.7175 2.40914 27.7843 2.77831 27.7773H4.88281C9.83202 27.7773 12.3115 33.7617 8.81152 37.2617L7.32421 38.75C6.83862 39.2775 6.57575 39.9723 6.59057 40.6891C6.60539 41.4059 6.89675 42.0893 7.40373 42.5963C7.9107 43.1032 8.59405 43.3946 9.31087 43.4094C10.0277 43.4242 10.7225 43.1614 11.25 42.6758L12.7383 41.1865C16.2383 37.6865 22.2217 40.166 22.2217 45.1152V47.2188C22.2217 47.9556 22.5144 48.6623 23.0354 49.1833C23.5565 49.7044 24.2631 49.9971 25 49.9971C25.7368 49.9971 26.4435 49.7044 26.9646 49.1833C27.4856 48.6623 27.7783 47.9556 27.7783 47.2188V45.1172C27.7783 40.168 33.7617 37.6885 37.2617 41.1885L38.75 42.6758C39.2775 43.1614 39.9723 43.4242 40.6891 43.4094C41.4059 43.3946 42.0893 43.1032 42.5963 42.5963C43.1032 42.0893 43.3946 41.4059 43.4094 40.6891C43.4242 39.9723 43.1614 39.2775 42.6758 38.75L41.1865 37.2617C37.6865 33.7617 40.166 27.7773 45.1152 27.7773H47.2187C47.5879 27.7843 47.9548 27.7175 48.2978 27.581C48.6409 27.4446 48.9534 27.241 49.2169 26.9824C49.4804 26.7238 49.6898 26.4152 49.8326 26.0748C49.9755 25.7343 50.0492 25.3687 50.0492 24.9995C50.0492 24.6303 49.9755 24.2647 49.8326 23.9243C49.6898 23.5838 49.4804 23.2752 49.2169 23.0166C48.9534 22.758 48.6409 22.5545 48.2978 22.418C47.9548 22.2815 47.5879 22.2148 47.2187 22.2217H47.2217ZM21.875 26.5625C20.9479 26.5625 20.0416 26.2876 19.2708 25.7725C18.4999 25.2574 17.8991 24.5254 17.5443 23.6688C17.1895 22.8123 17.0967 21.8698 17.2776 20.9605C17.4584 20.0512 17.9049 19.216 18.5604 18.5604C19.216 17.9049 20.0512 17.4584 20.9605 17.2776C21.8698 17.0967 22.8123 17.1895 23.6688 17.5443C24.5253 17.8991 25.2574 18.4999 25.7725 19.2708C26.2876 20.0416 26.5625 20.9479 26.5625 21.875C26.5625 23.1182 26.0686 24.3105 25.1896 25.1896C24.3105 26.0686 23.1182 26.5625 21.875 26.5625ZM29.6875 32.0312C29.2239 32.0312 28.7708 31.8938 28.3854 31.6363C27.9999 31.3787 27.6995 31.0127 27.5222 30.5844C27.3448 30.1561 27.2983 29.6849 27.3888 29.2303C27.4792 28.7756 27.7024 28.358 28.0302 28.0302C28.358 27.7024 28.7756 27.4792 29.2302 27.3888C29.6849 27.2984 30.1561 27.3448 30.5844 27.5222C31.0127 27.6996 31.3787 28 31.6362 28.3854C31.8938 28.7708 32.0312 29.224 32.0312 29.6875C32.0312 30.3091 31.7843 30.9052 31.3448 31.3448C30.9052 31.7843 30.3091 32.0312 29.6875 32.0312Z" fill="#FFB904"/>
</svg>
