<svg width="128" height="38" viewBox="0 0 128 38" fill="none" xmlns="http://www.w3.org/2000/svg">
<path d="M14.5312 12.5859C14.3203 14.3906 13.6523 15.7852 12.5273 16.7695C11.4102 17.7461 9.92188 18.2344 8.0625 18.2344C6.04688 18.2344 4.42969 17.5117 3.21094 16.0664C2 14.6211 1.39453 12.6875 1.39453 10.2656V8.625C1.39453 7.03906 1.67578 5.64453 2.23828 4.44141C2.80859 3.23828 3.61328 2.31641 4.65234 1.67578C5.69141 1.02734 6.89453 0.703125 8.26172 0.703125C10.0742 0.703125 11.5273 1.21094 12.6211 2.22656C13.7148 3.23438 14.3516 4.63281 14.5312 6.42188H12.2695C12.0742 5.0625 11.6484 4.07812 10.9922 3.46875C10.3438 2.85938 9.43359 2.55469 8.26172 2.55469C6.82422 2.55469 5.69531 3.08594 4.875 4.14844C4.0625 5.21094 3.65625 6.72266 3.65625 8.68359V10.3359C3.65625 12.1875 4.04297 13.6602 4.81641 14.7539C5.58984 15.8477 6.67188 16.3945 8.0625 16.3945C9.3125 16.3945 10.2695 16.1133 10.9336 15.5508C11.6055 14.9805 12.0508 13.9922 12.2695 12.5859H14.5312ZM16.6992 11.543C16.6992 10.3008 16.9414 9.18359 17.4258 8.19141C17.918 7.19922 18.5977 6.43359 19.4648 5.89453C20.3398 5.35547 21.3359 5.08594 22.4531 5.08594C24.1797 5.08594 25.5742 5.68359 26.6367 6.87891C27.707 8.07422 28.2422 9.66406 28.2422 11.6484V11.8008C28.2422 13.0352 28.0039 14.1445 27.5273 15.1289C27.0586 16.1055 26.3828 16.8672 25.5 17.4141C24.625 17.9609 23.6172 18.2344 22.4766 18.2344C20.7578 18.2344 19.3633 17.6367 18.293 16.4414C17.2305 15.2461 16.6992 13.6641 16.6992 11.6953V11.543ZM18.8789 11.8008C18.8789 13.207 19.2031 14.3359 19.8516 15.1875C20.5078 16.0391 21.3828 16.4648 22.4766 16.4648C23.5781 16.4648 24.4531 16.0352 25.1016 15.1758C25.75 14.3086 26.0742 13.0977 26.0742 11.543C26.0742 10.1523 25.7422 9.02734 25.0781 8.16797C24.4219 7.30078 23.5469 6.86719 22.4531 6.86719C21.3828 6.86719 20.5195 7.29297 19.8633 8.14453C19.207 8.99609 18.8789 10.2148 18.8789 11.8008ZM37.0898 7.26562C36.7617 7.21094 36.4062 7.18359 36.0234 7.18359C34.6016 7.18359 33.6367 7.78906 33.1289 9V18H30.9609V5.32031H33.0703L33.1055 6.78516C33.8164 5.65234 34.8242 5.08594 36.1289 5.08594C36.5508 5.08594 36.8711 5.14062 37.0898 5.25V7.26562ZM38.2852 11.543C38.2852 10.3008 38.5273 9.18359 39.0117 8.19141C39.5039 7.19922 40.1836 6.43359 41.0508 5.89453C41.9258 5.35547 42.9219 5.08594 44.0391 5.08594C45.7656 5.08594 47.1602 5.68359 48.2227 6.87891C49.293 8.07422 49.8281 9.66406 49.8281 11.6484V11.8008C49.8281 13.0352 49.5898 14.1445 49.1133 15.1289C48.6445 16.1055 47.9688 16.8672 47.0859 17.4141C46.2109 17.9609 45.2031 18.2344 44.0625 18.2344C42.3438 18.2344 40.9492 17.6367 39.8789 16.4414C38.8164 15.2461 38.2852 13.6641 38.2852 11.6953V11.543ZM40.4648 11.8008C40.4648 13.207 40.7891 14.3359 41.4375 15.1875C42.0938 16.0391 42.9688 16.4648 44.0625 16.4648C45.1641 16.4648 46.0391 16.0352 46.6875 15.1758C47.3359 14.3086 47.6602 13.0977 47.6602 11.543C47.6602 10.1523 47.3281 9.02734 46.6641 8.16797C46.0078 7.30078 45.1328 6.86719 44.0391 6.86719C42.9688 6.86719 42.1055 7.29297 41.4492 8.14453C40.793 8.99609 40.4648 10.2148 40.4648 11.8008ZM54.5977 5.32031L54.668 6.91406C55.6367 5.69531 56.9023 5.08594 58.4648 5.08594C61.1445 5.08594 62.4961 6.59766 62.5195 9.62109V18H60.3516V9.60938C60.3438 8.69531 60.1328 8.01953 59.7188 7.58203C59.3125 7.14453 58.6758 6.92578 57.8086 6.92578C57.1055 6.92578 56.4883 7.11328 55.957 7.48828C55.4258 7.86328 55.0117 8.35547 54.7148 8.96484V18H52.5469V5.32031H54.5977ZM73.6172 18C73.4922 17.75 73.3906 17.3047 73.3125 16.6641C72.3047 17.7109 71.1016 18.2344 69.7031 18.2344C68.4531 18.2344 67.4258 17.8828 66.6211 17.1797C65.8242 16.4688 65.4258 15.5703 65.4258 14.4844C65.4258 13.1641 65.9258 12.1406 66.9258 11.4141C67.9336 10.6797 69.3477 10.3125 71.168 10.3125H73.2773V9.31641C73.2773 8.55859 73.0508 7.95703 72.5977 7.51172C72.1445 7.05859 71.4766 6.83203 70.5938 6.83203C69.8203 6.83203 69.1719 7.02734 68.6484 7.41797C68.125 7.80859 67.8633 8.28125 67.8633 8.83594H65.6836C65.6836 8.20312 65.9062 7.59375 66.3516 7.00781C66.8047 6.41406 67.4141 5.94531 68.1797 5.60156C68.9531 5.25781 69.8008 5.08594 70.7227 5.08594C72.1836 5.08594 73.3281 5.45312 74.1562 6.1875C74.9844 6.91406 75.4141 7.91797 75.4453 9.19922V15.0352C75.4453 16.1992 75.5938 17.125 75.8906 17.8125V18H73.6172ZM70.0195 16.3477C70.6992 16.3477 71.3438 16.1719 71.9531 15.8203C72.5625 15.4688 73.0039 15.0117 73.2773 14.4492V11.8477H71.5781C68.9219 11.8477 67.5938 12.625 67.5938 14.1797C67.5938 14.8594 67.8203 15.3906 68.2734 15.7734C68.7266 16.1562 69.3086 16.3477 70.0195 16.3477ZM82.8398 15.0586L85.9805 5.32031H88.1953L83.6484 18H81.9961L77.4023 5.32031H79.6172L82.8398 15.0586ZM92.6367 18H90.4688V5.32031H92.6367V18ZM90.293 1.95703C90.293 1.60547 90.3984 1.30859 90.6094 1.06641C90.8281 0.824219 91.1484 0.703125 91.5703 0.703125C91.9922 0.703125 92.3125 0.824219 92.5312 1.06641C92.75 1.30859 92.8594 1.60547 92.8594 1.95703C92.8594 2.30859 92.75 2.60156 92.5312 2.83594C92.3125 3.07031 91.9922 3.1875 91.5703 3.1875C91.1484 3.1875 90.8281 3.07031 90.6094 2.83594C90.3984 2.60156 90.293 2.30859 90.293 1.95703ZM102.246 7.26562C101.918 7.21094 101.562 7.18359 101.18 7.18359C99.7578 7.18359 98.793 7.78906 98.2852 9V18H96.1172V5.32031H98.2266L98.2617 6.78516C98.9727 5.65234 99.9805 5.08594 101.285 5.08594C101.707 5.08594 102.027 5.14062 102.246 5.25V7.26562ZM112.078 16.7461C111.234 17.7383 109.996 18.2344 108.363 18.2344C107.012 18.2344 105.98 17.8438 105.27 17.0625C104.566 16.2734 104.211 15.1094 104.203 13.5703V5.32031H106.371V13.5117C106.371 15.4336 107.152 16.3945 108.715 16.3945C110.371 16.3945 111.473 15.7773 112.02 14.543V5.32031H114.188V18H112.125L112.078 16.7461ZM124.875 14.6367C124.875 14.0508 124.652 13.5977 124.207 13.2773C123.77 12.9492 123 12.668 121.898 12.4336C120.805 12.1992 119.934 11.918 119.285 11.5898C118.645 11.2617 118.168 10.8711 117.855 10.418C117.551 9.96484 117.398 9.42578 117.398 8.80078C117.398 7.76172 117.836 6.88281 118.711 6.16406C119.594 5.44531 120.719 5.08594 122.086 5.08594C123.523 5.08594 124.688 5.45703 125.578 6.19922C126.477 6.94141 126.926 7.89062 126.926 9.04688H124.746C124.746 8.45312 124.492 7.94141 123.984 7.51172C123.484 7.08203 122.852 6.86719 122.086 6.86719C121.297 6.86719 120.68 7.03906 120.234 7.38281C119.789 7.72656 119.566 8.17578 119.566 8.73047C119.566 9.25391 119.773 9.64844 120.188 9.91406C120.602 10.1797 121.348 10.4336 122.426 10.6758C123.512 10.918 124.391 11.207 125.062 11.543C125.734 11.8789 126.23 12.2852 126.551 12.7617C126.879 13.2305 127.043 13.8047 127.043 14.4844C127.043 15.6172 126.59 16.5273 125.684 17.2148C124.777 17.8945 123.602 18.2344 122.156 18.2344C121.141 18.2344 120.242 18.0547 119.461 17.6953C118.68 17.3359 118.066 16.8359 117.621 16.1953C117.184 15.5469 116.965 14.8477 116.965 14.0977H119.133C119.172 14.8242 119.461 15.4023 120 15.832C120.547 16.2539 121.266 16.4648 122.156 16.4648C122.977 16.4648 123.633 16.3008 124.125 15.9727C124.625 15.6367 124.875 15.1914 124.875 14.6367ZM9.17969 26.8594H5.52344V37H4.03125V26.8594H0.382812V25.625H9.17969V26.8594ZM15.0391 32.3984H12.3672V37H10.8594V25.625H14.625C15.9062 25.625 16.8906 25.9167 17.5781 26.5C18.2708 27.0833 18.6172 27.9323 18.6172 29.0469C18.6172 29.7552 18.4245 30.3724 18.0391 30.8984C17.6589 31.4245 17.1276 31.8177 16.4453 32.0781L19.1172 36.9062V37H17.5078L15.0391 32.3984ZM12.3672 31.1719H14.6719C15.4167 31.1719 16.0078 30.9792 16.4453 30.5938C16.888 30.2083 17.1094 29.6927 17.1094 29.0469C17.1094 28.3438 16.8984 27.8047 16.4766 27.4297C16.0599 27.0547 15.4557 26.8646 14.6641 26.8594H12.3672V31.1719ZM27.0078 34.0312H22.2422L21.1719 37H19.625L23.9688 25.625H25.2812L29.6328 37H28.0938L27.0078 34.0312ZM22.6953 32.7969H26.5625L24.625 27.4766L22.6953 32.7969ZM39.4375 33.3906C39.2969 34.5938 38.8516 35.5234 38.1016 36.1797C37.3568 36.8307 36.3646 37.1562 35.125 37.1562C33.7812 37.1562 32.7031 36.6745 31.8906 35.7109C31.0833 34.7474 30.6797 33.4583 30.6797 31.8438V30.75C30.6797 29.6927 30.8672 28.763 31.2422 27.9609C31.6224 27.1589 32.1589 26.5443 32.8516 26.1172C33.5443 25.6849 34.3464 25.4688 35.2578 25.4688C36.4661 25.4688 37.4349 25.8073 38.1641 26.4844C38.8932 27.1562 39.3177 28.0885 39.4375 29.2812H37.9297C37.7995 28.375 37.5156 27.7188 37.0781 27.3125C36.6458 26.9062 36.0391 26.7031 35.2578 26.7031C34.2995 26.7031 33.5469 27.0573 33 27.7656C32.4583 28.474 32.1875 29.4818 32.1875 30.7891V31.8906C32.1875 33.125 32.4453 34.1068 32.9609 34.8359C33.4766 35.5651 34.1979 35.9297 35.125 35.9297C35.9583 35.9297 36.5964 35.7422 37.0391 35.3672C37.487 34.987 37.7839 34.3281 37.9297 33.3906H39.4375ZM44.3828 31.7109L42.9922 33.1562V37H41.4922V25.625H42.9922V31.25L48.0469 25.625H49.8594L45.3828 30.6484L50.2109 37H48.4141L44.3828 31.7109ZM57.9531 31.7422H53.0234V35.7734H58.75V37H51.5234V25.625H58.6719V26.8594H53.0234V30.5156H57.9531V31.7422ZM64.7891 32.3984H62.1172V37H60.6094V25.625H64.375C65.6562 25.625 66.6406 25.9167 67.3281 26.5C68.0208 27.0833 68.3672 27.9323 68.3672 29.0469C68.3672 29.7552 68.1745 30.3724 67.7891 30.8984C67.4089 31.4245 66.8776 31.8177 66.1953 32.0781L68.8672 36.9062V37H67.2578L64.7891 32.3984ZM62.1172 31.1719H64.4219C65.1667 31.1719 65.7578 30.9792 66.1953 30.5938C66.638 30.2083 66.8594 29.6927 66.8594 29.0469C66.8594 28.3438 66.6484 27.8047 66.2266 27.4297C65.8099 27.0547 65.2057 26.8646 64.4141 26.8594H62.1172V31.1719Z" fill="#004643"/>
</svg>
